<?xml version="1.0" encoding="UTF-8"?>
<svg width="32px" height="32px" viewBox="0 0 32 32" version="1.1" xmlns="http://www.w3.org/2000/svg" xmlns:xlink="http://www.w3.org/1999/xlink">
    <title>Vite Logo</title>
    <g id="Page-1" stroke="none" stroke-width="1" fill="none" fill-rule="evenodd">
        <path d="M29.8842,6.06469 C29.8842,6.06469 19.1702,-0.271391 16.4062,0.0866092 C16.4062,0.0866092 15.6952,0.444609 15.6952,1.04461 C15.6952,1.04461 15.6952,12.4906 15.6952,12.4906 L29.8842,6.06469 Z" id="Path" fill="#41B883"></path>
        <path d="M22.0272,4.60361 C19.5782,5.56161 14.6242,7.47769 14.6242,7.47769 L22.0272,15.2477 L29.4292,7.47769 C29.4292,7.47769 24.4762,5.56161 22.0272,4.60361 Z" id="Path" fill="#41B883"></path>
        <path d="M3.61502,5.83777 C3.61502,5.83777 1.56102,17.0498 2.21702,19.7748 C2.21702,19.7748 2.67302,20.4528 3.26102,20.3718 C3.26102,20.3718 14.4412,17.7278 14.4412,17.7278 L3.61502,5.83777 Z" id="Path" fill="#41B883"></path>
        <path d="M4.33496,13.7478 C4.88096,16.3268 5.99296,21.4788 5.99296,21.4788 L15.1,15.2468 L5.99296,9.01577 C5.99296,9.01577 3.78996,11.1688 4.33496,13.7478 Z" id="Path" fill="#41B883"></path>
    </g>
</svg>